<svg width="375" height="137" viewBox="0 0 375 137" fill="none" xmlns="http://www.w3.org/2000/svg">
<g clip-path="url(#clip0)">
<g clip-path="url(#clip1)">
<path d="M681.703 -55.0166C657.546 -127.627 633.388 -200.237 609.231 -272.848C604.243 -287.849 597.722 -304.545 583.111 -310.58C572.341 -315.019 560.113 -312.29 548.809 -309.501C276.602 -242.444 4.40394 -175.389 -267.787 -108.347C-287.422 -103.512 -307.372 -98.5423 -324.809 -88.3191C-342.246 -78.0959 -357.162 -61.6731 -360.68 -41.7585C-364.156 -22.0544 -355.855 -1.52551 -342.197 13.1025C-328.54 27.7305 -310.096 37.0646 -291.151 43.4764C-217.626 68.3722 -131.15 49.9174 -74.1807 -2.80779C-58.9278 21.3072 -27.2628 29.4748 1.28755 24.3917C11.9463 30.1459 22.6051 35.9 33.2638 41.6542C52.1862 51.8685 71.5055 62.2261 92.6604 66.0242C112.649 69.6145 133.853 67.2664 152.789 74.5986C171.347 81.7818 185.181 97.2544 200.8 109.592C216.419 121.93 237.197 131.648 255.812 124.633C282.065 114.744 291.531 76.5008 319.202 71.8653C336.588 68.9463 352.448 81.0774 366.744 91.4083C381.036 101.73 399.913 111.154 415.497 102.918C437.981 91.0359 434.92 52.2525 458.251 42.1429C474.538 35.0856 492.144 46.8779 507.69 55.4417C543.499 75.1582 587.687 79.0186 626.366 65.7999C658.114 54.9538 687.86 29.4018 691.082 -4.00222C692.772 -21.3533 687.196 -38.4854 681.703 -55.0166Z" fill="#FF7171"/>
</g>
</g>
<defs>
<clipPath id="clip0">
<rect width="375" height="137" fill="white"/>
</clipPath>
<clipPath id="clip1">
<rect width="1009.39" height="421.35" fill="white" transform="translate(-377 -76.8201) rotate(-16.4703)"/>
</clipPath>
</defs>
</svg>
